<svg width="20" height="21" viewBox="0 0 20 21" fill="none" xmlns="http://www.w3.org/2000/svg">
<path d="M9.9987 3.5C10.8828 3.5 11.7306 3.86875 12.3557 4.52513C12.9808 5.1815 13.332 6.07174 13.332 7C13.332 7.92826 12.9808 8.8185 12.3557 9.47487C11.7306 10.1313 10.8828 10.5 9.9987 10.5C9.11464 10.5 8.2668 10.1313 7.64167 9.47487C7.01655 8.8185 6.66536 7.92826 6.66536 7C6.66536 6.07174 7.01655 5.1815 7.64167 4.52513C8.2668 3.86875 9.11464 3.5 9.9987 3.5ZM9.9987 12.25C13.682 12.25 16.6654 13.8162 16.6654 15.75V17.5H3.33203V15.75C3.33203 13.8162 6.31536 12.25 9.9987 12.25Z" fill="white"/>
</svg>
